<?xml version="1.0" standalone="no"?>
<!DOCTYPE svg PUBLIC "-//W3C//DTD SVG 20010904//EN" "http://www.w3.org/TR/2001/REC-SVG-20010904/DTD/svg10.dtd">
<!-- Created using Krita: https://krita.org -->
<svg xmlns="http://www.w3.org/2000/svg" 
    xmlns:xlink="http://www.w3.org/1999/xlink"
    xmlns:krita="http://krita.org/namespaces/svg/krita"
    xmlns:sodipodi="http://sodipodi.sourceforge.net/DTD/sodipodi-0.dtd"
    width="288pt"
    height="288pt"
    viewBox="0 0 288 288">
<defs/>
<path id="shape0" transform="translate(71.9405573448503, 129.975286187721)" fill="#565d8a" fill-rule="evenodd" stroke="#565d8a" stroke-width="2.4" stroke-linecap="square" stroke-linejoin="bevel" d="M17.1852 0L6.48341 4.9821C5.55169 5.7844 4.47331 6.86278 3.24827 8.21722C2.02324 9.57166 1.17781 11.5075 0.711971 14.0247L0.000210359 22.2577C-0.00837988 24.7854 0.246123 26.9939 0.76372 28.8832C1.28132 30.7725 25.0466 41.5045 72.0594 61.0792C74.6605 61.7004 77.0739 61.4416 79.2997 60.3028C82.6383 58.5947 149.476 36.9322 150.162 34.3959C150.848 31.8595 150.033 31.8596 150.201 31.8466C150.313 31.838 147.617 31.1521 142.113 29.7891L136.833 24.2505L135.979 14.0247L135.98 12.1486C142.252 11.5102 145.774 10.8545 146.546 10.1816C147.705 9.17224 148.235 8.53816 146.449 7.5935C145.259 6.96372 140.382 5.25126 131.82 2.45611C131.798 2.36984 93.5869 1.55114 17.1852 0Z"/><path id="shape1" transform="translate(87.4751201294576, 105.071638183594)" fill="#a4c1a4" fill-rule="evenodd" stroke="#a4c1a4" stroke-width="2.4" stroke-linecap="square" stroke-linejoin="bevel" d="M29.1821 49.2288C88.7202 38.8096 118.99 32.3434 119.99 29.8301C121.491 26.0601 122.918 23.8824 121.564 17.1294C120.661 12.6274 119.377 8.37559 117.712 4.37385L19.2723 0C6.78517 2.04967 0.584304 3.79433 0.669714 5.23398C0.797829 7.39346 28.0933 14.0458 30.5821 16.3974C32.2414 17.9651 33.4523 20.5364 34.2148 24.1111C35.4349 30.4104 35.6484 35.3495 34.8554 38.9284C34.0623 42.5073 33.1442 45.0196 32.1011 46.4654C31.4179 47.3438 30.3107 47.2462 28.7795 46.1725C26.4828 44.5621 3.24092 33.1242 1.42918 33.8379C0.221345 34.3137 -0.220911 35.1311 0.102409 36.2902C0.980827 37.2845 10.6741 41.5974 29.1821 49.2288Z"/><path id="shape2" transform="translate(95.7982097107146, 74.1102292567003)" fill="#5a8f9b" fill-rule="evenodd" stroke="#5a8f9b" stroke-width="2.4" stroke-linecap="square" stroke-linejoin="bevel" d="M11.5897 10.2451C39.5653 3.08341 54.8738 -0.323562 57.5152 0.0241506C61.4773 0.545719 116.114 14.0425 115.574 16.2294C115.034 18.4163 65.4394 25.3248 63.2525 29.7353C61.0656 34.1457 61.9075 44.0189 65.3297 44.5039C67.6111 44.8272 84.1 40.3832 114.796 31.1719L113.653 27.5849C117.105 28.5305 118.886 29.4333 118.996 30.2934C119.106 31.1536 118.944 32.0289 118.511 32.9196C85.4176 43.2046 67.9771 48.2159 66.1897 47.9536C63.5087 47.5601 4.30605 31.7209 2.50347 28.5732C0.700892 25.4255 -0.27818 21.4451 0.0695149 19.9261C0.41721 18.4072 1.28651 14.0516 4.07736 12.4777C6.86821 10.9039 6.86821 10.9039 11.5897 10.2451Z"/><path id="shape3" transform="translate(87.3171707415026, 112.845924795752)" fill="#eef1da" fill-rule="evenodd" stroke="#eef1da" stroke-width="2.4" stroke-linecap="square" stroke-linejoin="bevel" d="M1.99864 0C18.9378 4.15822 28.1859 7.28982 29.7431 9.39481C32.0789 12.5523 33.03 13.3158 33.3406 16.0657C33.6511 18.8155 34.997 24.3349 34.5958 27.7445C34.1946 31.1541 33.897 33.7165 32.37 36.0976C30.843 38.4786 31.4189 38.3751 30.6878 38.6274C30.2003 38.7957 20.2663 34.4304 0.885755 25.5316C-0.00713331 25.5144 -0.224962 24.9428 0.232268 23.817C0.918113 22.1283 1.24808 23.707 1.64924 21.643C2.05041 19.579 0.238731 19.4043 2.09569 18.4144C3.95266 17.4244 2.24454 17.6185 3.85562 17.0038C5.46671 16.3892 0.698109 17.4373 1.70748 14.0793C2.38039 11.8406 2.50763 10.1367 2.08921 8.96777L1.26751 6.6126L2.29627 5.15679L1.17692 4.17979L1.70101 3.18336L0.724004 2.08989C1.15104 1.82677 1.57592 1.13014 1.99864 0Z"/><path id="shape4" transform="translate(158.50920827837, 92.5561171901739)" fill="#eef1da" fill-rule="evenodd" stroke="#eef1da" stroke-width="2.4" stroke-linecap="square" stroke-linejoin="bevel" d="M14.0539 7.5055C7.74752 8.92896 4.04006 9.9944 2.93149 10.7018C1.82292 11.4092 0.975322 13.044 0.388686 15.6063C-0.111689 17.5473 -0.128946 19.1541 0.336916 20.4266C0.802778 21.6991 1.14786 22.9629 1.37216 24.2182L3.16443 25.4087L50.9732 12.1253L50.6432 9.53716L49.2327 8.71544L50.0285 7.72549L49.3944 6.59319L49.7438 5.95264L49.6403 4.7427L50.4167 3.88862L50.572 1.9799L50.7273 0.68585L50.5979 0C50.5418 0.0215688 38.3605 2.5234 14.0539 7.5055Z"/><path id="shape5" transform="translate(208.052449454237, 91.6989732479516)" fill="#eef1da" fill-rule="evenodd" stroke="#eef1da" stroke-width="2.4" stroke-linecap="square" stroke-linejoin="bevel" d="M0 0.138945C1.84188 -0.180254 2.57086 0.0505191 2.18695 0.831264C1.61108 2.00238 1.57873 1.94415 0 0.138945Z"/><path id="shape6" transform="translate(143.140393953028, 141.348328817735)" fill="#eef1da" fill-rule="evenodd" stroke="#eef1da" stroke-width="2.4" stroke-linecap="square" stroke-linejoin="bevel" d="M19.4441 13.2835C9.82066 15.2461 4.76739 16.786 4.28426 17.9032C3.55958 19.579 2.57882 20.8213 0.859606 25.2146C-0.286535 28.1435 -0.286535 34.3873 0.859606 43.946C1.17143 45.1926 2.05633 45.913 3.51429 46.1071C4.97226 46.3012 27.258 38.2026 70.3715 21.8112L70.8632 18.1361L70.7015 16.6156L71.672 15.4963L71.3226 14.461L71.782 12.9146L72.0796 11.0189L71.3549 10.3783L72.0731 8.90307L71.1738 7.22729L71.0056 5.30561L70.365 2.65167L70.1321 2.65167L70.0868 0.537032L69.6015 0C68.8337 0.150971 67.7769 0.304101 66.4311 0.459388C64.4124 0.692319 64.3476 0.685856 19.4441 13.2835Z"/><path id="shape7" transform="translate(206.058139023044, 89.6509751944746)" fill="#5a8f9b" fill-rule="evenodd" stroke="#5a8f9b" stroke-width="2.4" stroke-linecap="square" stroke-linejoin="bevel" d="M0 0.556443L4.5615 0L5.15031 1.18406C5.00364 1.21425 3.28687 1.00504 0 0.556443Z"/><path id="shape8" transform="translate(207.664907226562, 91.4519641113281)" fill="#eef1da" fill-rule="evenodd" stroke="#eef1da" stroke-width="2.4" stroke-linecap="square" stroke-linejoin="bevel" d="M0 0.253916L1.3428 0L3.00359 0.155555L3.80195 0.386602L3.10195 0.805228L0.734312 0.857842C0.694658 0.854792 0.449888 0.653484 0 0.253916Z"/><path id="shape9" transform="translate(205.990273344866, 89.398721410359)" fill="#5a8f9b" fill-rule="evenodd" stroke="#5a8f9b" stroke-width="2.4" stroke-linecap="square" stroke-linejoin="bevel" d="M0.750552 2.32606L6.24705 1.05142L0 0C0.00647721 0.0280391 0.256661 0.803391 0.750552 2.32606Z"/><path id="shape10" transform="translate(157.761826171875, 138.545610351562)" fill="#565d8a" fill-rule="evenodd" stroke="#565d8a" stroke-width="2.4" stroke-linecap="square" stroke-linejoin="bevel" d="M0 16.0863L59.1477 2.30588L57.6013 0C57.2475 0.0610059 38.0471 5.4231 0 16.0863Z"/><path id="shape11" transform="translate(141.2321484375, 153.826669921875)" fill="#565d8a" fill-rule="evenodd" stroke="#565d8a" stroke-width="2.4" stroke-linecap="square" stroke-linejoin="bevel" d="M23.7676 0L2.76785 7.59478C-0.922617 9.99825 -0.922617 9.52243 2.76785 6.16731C8.30355 1.13464 8.34932 1.07058 23.7676 0Z"/><path id="shape12" transform="translate(163.64548828125, 140.485502929687)" fill="#565d8a" fill-rule="evenodd" stroke="#565d8a" stroke-width="2.4" stroke-linecap="square" stroke-linejoin="bevel" d="M0 14.4209L49.8693 0C50.4244 0.219609 33.8013 5.02658 0 14.4209Z"/><path id="shape13" transform="translate(206.073193359375, 91.0552954101562)" fill="none" stroke="#eef1da" stroke-width="1.44" stroke-linecap="square" stroke-linejoin="miter" stroke-miterlimit="2" d="M0 1.50522L5.78301 0"/><path id="shape14" transform="translate(210.927451171875, 91.5402612304687)" fill="none" stroke="#eef1da" stroke-width="1.44" stroke-linecap="square" stroke-linejoin="miter" stroke-miterlimit="2" d="M1.17125 0L0 0.992805"/><path id="shape15" transform="translate(203.985977792524, 89.8635629812482)" fill="none" stroke="#5a8f9b" stroke-width="1.44" stroke-linecap="square" stroke-linejoin="miter" stroke-miterlimit="2" d="M0 1.85696L9.0325 0"/><path id="shape16" transform="translate(206.781128085449, 87.4048719105885)" fill="none" stroke="#5a8f9b" stroke-width="1.44" stroke-linecap="square" stroke-linejoin="miter" stroke-miterlimit="2" d="M6.15968 2.23223L0 0"/><path id="shape17" transform="translate(144, 155.370205078125)" fill="none" stroke="#565d8a" stroke-width="1.44" stroke-linecap="square" stroke-linejoin="miter" stroke-miterlimit="2" d="M0 7.96078L21.7705 0"/><path id="shape18" transform="translate(165.230595703125, 150.666928710937)" fill="none" stroke="#565d8a" stroke-width="1.44" stroke-linecap="square" stroke-linejoin="miter" stroke-miterlimit="2" d="M0 5.26144L17.2118 0"/><path id="shape19" transform="translate(163.514520916462, 150.470472405468)" fill="none" stroke="#eef1da" stroke-width="0.72" stroke-linecap="square" stroke-linejoin="miter" stroke-miterlimit="2" d="M0 7.03963L21.7206 0"/><path id="shape20" transform="translate(88.4240625, 111.410192871094)" fill="none" stroke="#a4c1a4" stroke-width="0.72" stroke-linecap="square" stroke-linejoin="miter" stroke-miterlimit="2" d="M0 0L29.281 9.03595"/><path id="shape21" transform="translate(94.5593408203125, 112.677517089844)" fill="none" stroke="#a4c1a4" stroke-width="0.72" stroke-linecap="square" stroke-linejoin="miter" stroke-miterlimit="2" d="M0 0L20.7118 6.77582"/><path id="shape22" transform="translate(87.5959423828125, 111.003002929687)" fill="none" stroke="#a4c1a4" stroke-width="0.72" stroke-linecap="square" stroke-linejoin="miter" stroke-miterlimit="2" d="M0 0L2.71765 1.37713"/><path id="shape23" transform="translate(88.6939892578125, 112.059865722656)" fill="none" stroke="#a4c1a4" stroke-width="0.72" stroke-linecap="square" stroke-linejoin="miter" stroke-miterlimit="2" d="M0 0L7.28366 1.55555"/><path id="shape24" transform="translate(87.9665478515625, 110.9298046875)" fill="none" stroke="#a4c1a4" stroke-width="0.72" stroke-linecap="square" stroke-linejoin="miter" stroke-miterlimit="2" d="M0.951621 1.27646L0 0"/><path id="shape25" transform="translate(164.01333984375, 98.299599609375)" fill="none" stroke="#c7d9dd" stroke-width="0.3696" stroke-linecap="square" stroke-linejoin="miter" stroke-miterlimit="2" d="M0 9.41571L43.4366 0"/><path id="shape26" transform="translate(164.01333984375, 100.64208984375)" fill="none" stroke="#c7d9dd" stroke-width="0.3696" stroke-linecap="square" stroke-linejoin="miter" stroke-miterlimit="2" d="M0 9.27844L43.6104 0"/><path id="shape27" transform="translate(163.327060546875, 102.63685546875)" fill="none" stroke="#c7d9dd" stroke-width="0.3696" stroke-linecap="square" stroke-linejoin="miter" stroke-miterlimit="2" d="M0 11.1268L45.7608 0"/><path id="shape28" transform="translate(166.392421875, 104.933583984375)" fill="none" stroke="#c7d9dd" stroke-width="0.3696" stroke-linecap="square" stroke-linejoin="miter" stroke-miterlimit="2" d="M0 9.91897L42.0732 0"/><path id="shape29" transform="translate(166.0721484375, 94.0813037109375)" fill="none" stroke="#c7d9dd" stroke-width="0.3696" stroke-linecap="square" stroke-linejoin="miter" stroke-miterlimit="2" d="M0 9.3791L43.7477 0"/><path id="shape30" transform="translate(146.6185546875, 146.713989257812)" fill="none" stroke="#c7d9dd" stroke-width="0.3696" stroke-linecap="square" stroke-linejoin="miter" stroke-miterlimit="2" d="M0 20.8444L65.9922 0"/><path id="shape31" transform="translate(144, 148.644711914062)" fill="none" stroke="#c7d9dd" stroke-width="0.3696" stroke-linecap="square" stroke-linejoin="miter" stroke-miterlimit="2" d="M0 21.7229L70.4133 0"/><path id="shape32" transform="translate(147.908759765625, 152.185883789062)" fill="none" stroke="#c7d9dd" stroke-width="0.3696" stroke-linecap="square" stroke-linejoin="miter" stroke-miterlimit="2" d="M0 20.8261L65.5987 0"/><path id="shape33" transform="translate(152.273466796875, 156.770200195312)" fill="none" stroke="#c7d9dd" stroke-width="0.3696" stroke-linecap="square" stroke-linejoin="miter" stroke-miterlimit="2" d="M0 18.9686L58.7908 0"/><path id="shape34" transform="translate(148.43033203125, 160.3754296875)" fill="none" stroke="#c7d9dd" stroke-width="0.3696" stroke-linecap="square" stroke-linejoin="miter" stroke-miterlimit="2" d="M0 20.1582L64.3542 0"/><path id="shape35" transform="translate(150.09568359375, 162.672158203125)" fill="none" stroke="#c7d9dd" stroke-width="0.3696" stroke-linecap="square" stroke-linejoin="miter" stroke-miterlimit="2" d="M0 21.7046L63.2928 0"/><path id="shape36" transform="translate(88.772021484375, 128.669545898437)" fill="none" stroke="#eef1da" stroke-width="0.3696" stroke-linecap="square" stroke-linejoin="miter" stroke-miterlimit="2" d="M0 0L0.0366211 3.24836"/><path id="shape37" transform="translate(88.598173828125, 129.145356445312)" fill="none" stroke="#eef1da" stroke-width="0.3696" stroke-linecap="square" stroke-linejoin="miter" stroke-miterlimit="2" d="M0 0L0.530713 4.03529"/><path id="shape38" transform="translate(88.762880859375, 129.16365234375)" fill="none" stroke="#eef1da" stroke-width="0.3696" stroke-linecap="square" stroke-linejoin="miter" stroke-miterlimit="2" d="M0 0L0.841816 4.03529"/><path id="shape39" transform="translate(88.854375, 129.10875)" fill="none" stroke="#eef1da" stroke-width="0.3696" stroke-linecap="square" stroke-linejoin="miter" stroke-miterlimit="2" d="M0 0L0.320273 3.83399"/><path id="shape40" transform="translate(88.56158203125, 129.849931640625)" fill="none" stroke="#eef1da" stroke-width="0.3696" stroke-linecap="square" stroke-linejoin="miter" stroke-miterlimit="2" d="M0 0L0.677109 4.33726"/><path id="shape41" transform="translate(87.939375, 112.29046875)" fill="none" stroke="#a4c1a4" stroke-width="0.3696" stroke-linecap="square" stroke-linejoin="miter" stroke-miterlimit="2" d="M0.521514 0.201299L0 0"/><path id="shape42" transform="translate(87.326279296875, 111.9701953125)" fill="none" stroke="#a4c1a4" stroke-width="0.3696" stroke-linecap="square" stroke-linejoin="miter" stroke-miterlimit="2" d="M0 0L3.4222 0.704575"/><path id="shape43" transform="translate(87.280517578125, 111.430327148437)" fill="none" stroke="#a4c1a4" stroke-width="0.3696" stroke-linecap="square" stroke-linejoin="miter" stroke-miterlimit="2" d="M0 0L2.7085 1.0706"/><path id="shape44" transform="translate(87.317109375, 111.503540039062)" fill="none" stroke="#a4c1a4" stroke-width="0.3696" stroke-linecap="square" stroke-linejoin="miter" stroke-miterlimit="2" d="M0 0L2.2144 0.860127"/><path id="shape45" transform="translate(86.92365234375, 110.899614257812)" fill="none" stroke="#a4c1a4" stroke-width="0.3696" stroke-linecap="square" stroke-linejoin="miter" stroke-miterlimit="2" d="M0 0L2.88237 1.31764"/><path id="shape46" transform="translate(87.207333984375, 111.219873046875)" fill="none" stroke="#a4c1a4" stroke-width="0.3696" stroke-linecap="square" stroke-linejoin="miter" stroke-miterlimit="2" d="M0 0L2.32418 1.51896"/><path id="shape47" transform="translate(87.01517578125, 111.155815429687)" fill="none" stroke="#a4c1a4" stroke-width="0.3696" stroke-linecap="square" stroke-linejoin="miter" stroke-miterlimit="2" d="M0 0L3.10195 0.924185"/><path id="shape48" transform="translate(87.115810546875, 111.448637695312)" fill="none" stroke="#a4c1a4" stroke-width="0.3696" stroke-linecap="square" stroke-linejoin="miter" stroke-miterlimit="2" d="M0 0L3.01963 0.686265"/><path id="shape49" transform="translate(87.097529296875, 111.046025390625)" fill="none" stroke="#a4c1a4" stroke-width="0.3696" stroke-linecap="square" stroke-linejoin="miter" stroke-miterlimit="2" d="M0 0L2.53462 0.841816"/><path id="shape50" transform="translate(87.12498046875, 109.883920898437)" fill="none" stroke="#a4c1a4" stroke-width="0.3696" stroke-linecap="square" stroke-linejoin="miter" stroke-miterlimit="2" d="M0 0L3.00129 2.15033"/><path id="shape51" transform="translate(86.79556640625, 110.9728125)" fill="none" stroke="#a4c1a4" stroke-width="0.3696" stroke-linecap="square" stroke-linejoin="miter" stroke-miterlimit="2" d="M0 0L2.04967 1.4915"/><path id="shape52" transform="translate(89.824306640625, 136.877387695312)" fill="none" stroke="#c7d9dd" stroke-width="0.3696" stroke-linecap="square" stroke-linejoin="miter" stroke-miterlimit="2" d="M0 0L27.8719 12.2797"/><path id="shape53" transform="translate(88.900107421875, 134.205483398437)" fill="none" stroke="#c7d9dd" stroke-width="0.3696" stroke-linecap="square" stroke-linejoin="miter" stroke-miterlimit="2" d="M0 0L30.7177 12.2157"/><path id="shape54" transform="translate(88.90927734375, 130.70091796875)" fill="none" stroke="#c7d9dd" stroke-width="0.3696" stroke-linecap="square" stroke-linejoin="miter" stroke-miterlimit="2" d="M0 0L31.5137 13.2991"/><path id="shape55" transform="translate(89.934140625, 128.3309765625)" fill="none" stroke="#c7d9dd" stroke-width="0.3696" stroke-linecap="square" stroke-linejoin="miter" stroke-miterlimit="2" d="M0 0L30.2875 11.8039"/><path id="shape56" transform="translate(90.4190625, 125.375419921875)" fill="none" stroke="#c7d9dd" stroke-width="0.3696" stroke-linecap="square" stroke-linejoin="miter" stroke-miterlimit="2" d="M0 0L30.132 11.685"/><path id="shape57" transform="translate(90.02560546875, 122.74013671875)" fill="none" stroke="#c7d9dd" stroke-width="0.3696" stroke-linecap="square" stroke-linejoin="miter" stroke-miterlimit="2" d="M0 0L28.8967 10.9163"/><path id="shape58" transform="translate(89.302734375, 119.290458984375)" fill="none" stroke="#c7d9dd" stroke-width="0.3696" stroke-linecap="square" stroke-linejoin="miter" stroke-miterlimit="2" d="M0 0L29.2444 10.0013"/><path id="shape59" transform="translate(89.769404296875, 117.0486328125)" fill="none" stroke="#c7d9dd" stroke-width="0.3696" stroke-linecap="square" stroke-linejoin="miter" stroke-miterlimit="2" d="M0 0L29.0249 8.77516"/><path id="shape60" transform="translate(89.540625, 114.706142578125)" fill="none" stroke="#c7d9dd" stroke-width="0.3696" stroke-linecap="square" stroke-linejoin="miter" stroke-miterlimit="2" d="M0 0L24.285 7.49413"/>
</svg>
